<?xml version="1.0" standalone="no"?><!DOCTYPE svg PUBLIC "-//W3C//DTD SVG 1.1//EN" "http://www.w3.org/Graphics/SVG/1.1/DTD/svg11.dtd"><svg t="1669116510517" class="icon" viewBox="0 0 1024 1024" version="1.1" xmlns="http://www.w3.org/2000/svg" p-id="1407" xmlns:xlink="http://www.w3.org/1999/xlink" width="32" height="32"><path d="M951.466667 21.333333c14.933333-2.133333 27.733333 2.133333 38.4 10.666667 10.666667 10.666667 14.933333 25.6 10.666666 38.4l-68.266666 341.333333c-2.133333 14.933333-14.933333 27.733333-29.866667 32-2.133333 4.266667-6.4 4.266667-10.666667 4.266667-10.666667 0-21.333333-4.266667-29.866666-12.8l-106.666667-106.666667-238.933333 238.933334 57.6 170.666666c4.266667 14.933333 2.133333 32-10.666667 42.666667l-209.066667 209.066667c-8.533333 8.533333-19.2 12.8-29.866666 12.8-4.266667 0-6.4 0-10.666667-2.133334-14.933333-4.266667-25.6-14.933333-29.866667-27.733333l-42.666666-130.133333-19.2 19.2c-8.533333 8.533333-19.2 12.8-29.866667 12.8-10.666667 0-21.333333-4.266667-29.866667-12.8-17.066667-17.066667-17.066667-42.666667 0-59.733334l19.2-19.2-130.133333-42.666666c-14.933333-4.266667-25.6-17.066667-27.733333-29.866667-4.266667-14.933333 0-29.866667 10.666666-40.533333l209.066667-209.066667c10.666667-10.666667 27.733333-14.933333 42.666667-10.666667l170.666666 57.6 238.933334-238.933333-106.666667-106.666667c-10.666667-10.666667-14.933333-27.733333-10.666667-42.666666 4.266667-14.933333 17.066667-25.6 32-29.866667l341.333334-68.266667z m-85.333334 296.533334l40.533334-200.533334-200.533334 40.533334 160 160zM343.466667 881.066667l140.8-140.8-34.133334-104.533334-132.266666 132.266667-8.533334 8.533333 34.133334 104.533334z m-96-164.266667l140.8-140.8-104.533334-34.133333L142.933333 682.666667l104.533334 34.133333z" fill="#2c2c2c" p-id="1408"></path></svg>